<svg width="197" height="50" viewBox="0 0 197 50" fill="none" xmlns="http://www.w3.org/2000/svg">
<path d="M61.1052 31.1867C61.1305 30.9332 61.1052 30.6796 61.0038 30.4515C60.8263 30.0711 60.1924 29.8936 59.9896 30.274C59.7107 29.488 58.3669 29.5133 58.1133 30.2993C56.5413 30.0458 54.3608 30.0711 52.9156 29.488C51.6985 28.9555 49.9237 29.9951 48.8841 29.4626L48.4785 29.2598L48.4278 29.3105C48.1489 29.1837 46.7543 28.9048 46.7543 28.6259V28.5752L46.8304 28.6259C46.9825 28.6259 46.9572 28.0935 46.9572 28.0174C46.9572 27.3328 46.8304 22.6675 46.9572 22.414V21.6533H46.8811C47.1093 21.1716 47.0079 19.6503 46.9572 19.0925C46.9065 18.56 46.9572 18.0529 47.0079 17.5205C47.0079 17.4444 47.0586 16.988 47.16 17.0387C46.8304 16.8359 47.084 10.7254 47.084 10.0408L47.0332 9.9901C47.0332 9.45765 47.0332 8.95055 46.9572 8.4181C46.9572 8.62094 46.9572 9.12803 46.9065 9.12803L46.8558 9.07732V8.87448L46.8051 7.78423V7.45461C46.8051 7.45461 46.7543 7.25177 46.7543 7.32784C46.7543 7.27713 46.7036 6.92216 46.7543 7.17571C46.805 7.04894 46.8051 6.89681 46.8051 6.77003C46.8051 6.08545 46.1205 4.46274 46.5515 3.87958C47.6418 2.38365 50.0251 4.15848 51.3943 3.32177C54.0819 1.67371 48.0981 0.355258 46.8304 0.228484C45.5627 0.10171 44.2696 0.15242 43.0018 0.076355C42.8751 0.076355 42.7229 0.076355 42.6469 0.15242C42.5708 0.228484 42.6469 0.431323 42.7483 0.405968C42.1651 0.304549 41.5312 0.203129 41.0495 0.558097C40.5678 0.913065 40.7452 1.87655 41.3284 1.82584C40.8974 2.02868 40.6438 2.53577 40.7452 2.99216C41.0495 2.99216 41.3538 3.01752 41.658 3.01752C41.4045 3.14429 41.1763 3.27106 40.9227 3.39784C41.0749 3.49926 41.0495 3.77816 40.872 3.85423C44.1681 4.00635 43.585 5.24874 43.2807 7.80958C43.0272 9.93939 42.799 12.0945 42.5708 14.2244C42.0383 19.4475 40.1621 26.6989 41.8609 31.8206C42.1144 32.5813 42.5708 33.3165 43.3061 33.6208C43.8385 33.849 44.4471 33.7983 45.0302 33.7729C50.4054 33.418 55.806 33.063 61.0038 31.6178C61.0798 31.5417 61.0798 31.3642 61.1052 31.1867ZM47.8953 3.60068C47.8953 3.67674 47.7432 3.65139 47.7432 3.65139C47.7178 3.60068 47.8446 3.60068 47.8953 3.60068ZM42.3933 4.23455C42.3933 4.18384 42.444 4.15848 42.444 4.15848L42.5708 4.10777C42.5201 4.15848 42.444 4.23455 42.3933 4.23455ZM43.0018 0.304549H42.9258L43.0779 0.253839L43.0018 0.304549ZM43.5596 7.125L43.4836 7.47997L43.5596 7.07429L43.6103 6.94752C43.6357 6.94752 43.5596 7.07429 43.5596 7.125Z" fill="#440E0E"/>
<path d="M67.165 21.3997C67.2157 21.3997 67.165 21.349 67.1143 21.3237C66.9622 21.273 67.1903 21.0955 67.1143 20.9687C66.7593 20.918 66.8354 22.3379 66.9114 22.6168C66.9621 22.9717 67.2411 22.8957 67.1143 22.7435C67.0636 22.6421 67.0636 21.3997 67.165 21.3997Z" fill="#440E0E"/>
<path d="M66.2015 17.8501C66.2015 17.8247 66.2015 17.8247 66.2269 17.8247C66.1508 17.9008 66.1508 17.9008 66.2015 17.8501Z" fill="#440E0E"/>
<path d="M80.3494 23.4535C80.4762 21.4251 80.5269 19.3967 80.4002 17.3683C80.172 13.8947 79.3099 10.3704 77.3069 7.53065C74.0107 2.78929 66.9367 0.30452 62.6771 5.32478C62.0432 5.65439 61.7897 6.54181 62.1447 7.15033C62.1954 6.79536 62.4489 6.46575 62.7785 6.31362C62.7278 6.64323 62.6518 6.97284 62.6011 7.2771C62.8546 7.2771 63.1082 7.22639 63.3363 7.15033C63.1335 7.2771 62.956 7.40387 62.7532 7.53065C63.5899 7.63207 64.452 7.50529 65.238 7.20104C64.6548 7.22639 64.0716 7.25175 63.4885 7.25175C64.9337 6.97284 66.4296 6.71929 67.9002 6.92213C71.5767 7.40387 73.96 11.1564 74.67 14.4272C75.5827 18.5093 75.5574 22.7943 74.6446 26.8764C74.7207 26.5214 74.7967 26.1411 74.8982 25.7861C74.315 28.3723 69.0158 28.3977 66.6071 27.6877C64.1984 26.9778 64.1223 23.8592 64.2491 21.8815C64.1223 22.2365 64.0716 22.6421 64.097 23.0225C63.9195 22.4393 63.9449 21.7801 64.1731 21.2223C64.2238 21.2983 64.2491 21.3744 64.2998 21.4505C64.1223 19.5235 65.9986 17.7233 67.4945 16.8105C67.9002 16.557 68.3566 16.3288 68.8383 16.3795C69.4469 16.4302 69.9286 16.9119 70.3343 17.3683C70.6892 17.7486 71.0949 18.205 71.0696 18.7375C71.2471 19.1685 71.2471 19.6756 71.0696 20.0813C70.9682 20.3856 70.8414 20.6645 70.6892 20.9434C70.6892 20.8419 70.6639 20.7659 70.6639 20.6645C70.6893 20.8673 70.5878 21.0701 70.4611 21.2223C70.385 21.2983 70.2836 21.3744 70.3089 21.4758C70.3343 21.5772 70.5371 21.4505 70.4357 21.4251C70.3596 21.5519 70.2075 21.6279 70.0807 21.6533C70.2075 21.704 70.1822 21.9576 70.03 21.9576C70.0554 22.0083 70.1061 21.9068 70.0807 21.8815C70.03 21.8561 69.9793 21.8815 69.9286 21.9068C69.5736 22.1097 69.0919 21.9829 68.7623 21.7294C68.4073 21.4758 68.1538 20.6645 67.6467 20.8673C67.6467 20.918 67.7227 21.273 67.7481 21.2983C67.596 21.273 67.4692 21.1462 67.4185 21.0194C67.3424 21.1462 67.3678 21.349 67.4945 21.4505C67.4438 21.4251 67.3931 21.5012 67.3678 21.5772C67.1903 22.6675 67.7734 23.8338 68.7623 24.3156C70.6893 25.279 72.6923 23.707 73.4783 21.9829C73.5036 21.9068 73.529 21.8308 73.5036 21.7801C73.4783 21.704 73.4276 21.6786 73.4276 21.6026C73.4276 21.5265 73.4783 21.4505 73.5543 21.3997C73.884 21.0955 74.0868 20.6645 74.1122 20.2081C74.1629 20.4109 73.8586 20.563 73.7318 20.4109C73.9347 20.2588 73.96 19.9038 73.7572 19.7517C73.884 19.8785 74.0361 19.9545 74.2136 19.9799C74.5685 20.0559 74.3403 17.1655 74.2643 16.9373C73.9347 16.0752 73.3008 15.1625 72.6923 14.4525C71.9063 13.5651 70.8667 12.8552 69.6751 12.703C68.9905 12.627 68.3059 12.703 67.6467 12.8045C67.4692 12.8298 67.2917 12.8552 67.1396 12.9312C66.886 13.0326 66.6578 13.2355 66.455 13.413C65.5676 14.0976 64.4266 14.3765 63.5138 15.0357C62.3729 15.847 61.6629 17.1655 61.308 18.5346C60.8516 20.3602 60.7755 22.49 60.9783 24.3663C60.9023 23.7577 60.8516 23.1746 60.7755 22.5661C60.522 23.0985 60.4205 23.707 60.4205 24.3156C60.3952 23.6817 60.3445 23.0478 60.3191 22.4139C59.9134 24.0113 60.167 25.7861 61.0037 27.206C61.1558 27.5103 61.308 27.8145 61.4601 28.1188C61.7643 28.7273 62.0686 29.3612 62.525 29.8936C63.666 31.2374 65.5422 31.7445 67.3171 31.9474C69.0412 32.1502 70.7907 32.1756 72.5148 32.0234C73.4022 31.9474 74.2896 31.8206 75.1517 31.6431C75.8363 31.5163 76.4194 31.1867 77.1294 31.491C77.1801 31.3135 77.2308 31.136 77.2815 30.9839C77.2562 31.136 77.4336 31.2881 77.5604 31.2121C77.6872 31.136 77.6872 30.9078 77.5604 30.8571C77.4083 31.0092 77.4843 31.3135 77.6872 31.4149C77.9407 31.5163 78.6507 30.5528 78.5239 31.3642C78.8535 31.2374 79.2085 31.1106 79.462 30.8317C79.7156 30.5528 79.8423 30.1725 79.7156 29.8429C79.6902 29.7668 79.6142 29.6654 79.5381 29.6908C79.4874 29.6908 79.462 29.7415 79.4367 29.7668C79.3352 29.9697 79.6142 30.1725 79.817 30.0965C80.0198 30.0204 80.0959 29.7668 80.0959 29.5386C80.0959 29.2597 79.9945 29.0062 79.9691 28.7273C79.9438 28.4484 80.0452 28.1441 80.2734 28.0174C80.3241 28.0681 80.2987 28.1695 80.248 28.1695C80.172 27.5103 80.172 26.851 80.2227 26.1918C80.248 25.2283 80.2987 24.3409 80.3494 23.4535ZM62.8039 6.64323C62.8546 6.64323 62.9307 6.69394 62.9307 6.69394C62.9307 6.79536 62.6011 6.59252 62.8039 6.64323ZM62.9814 5.07123C62.9814 4.99516 63.1842 4.84304 63.2096 4.86839C63.2603 4.84304 63.0067 5.14729 62.9814 5.07123ZM63.9702 7.04891H64.1223C64.1731 7.12497 63.8434 7.07426 63.9702 7.04891ZM64.7816 6.74465C64.7816 6.69394 64.9844 6.61787 64.9844 6.69394C64.9591 6.79536 64.7816 6.79536 64.7816 6.74465ZM67.4945 22.0336C67.5453 22.0843 67.5452 22.1604 67.5452 22.1857C67.4438 22.4393 67.4185 21.9322 67.4945 22.0336ZM67.8242 23.4028C67.8749 23.4535 67.9002 23.4535 67.9002 23.4788C67.9002 23.6056 67.6213 23.3521 67.8242 23.4028ZM68.0523 21.1208C68.1284 21.0448 68.0016 21.1969 68.1031 21.2476C68.2805 21.4505 67.8495 21.1716 68.0523 21.1208ZM68.2045 21.3997C68.2552 21.3997 68.2805 21.4505 68.2805 21.4505C68.2805 21.6026 68.1031 21.3997 68.2045 21.3997ZM73.0473 22.0336C73.1233 21.8815 73.1994 21.8308 73.1233 22.0336C73.0472 22.1604 72.9712 22.2111 73.0473 22.0336ZM72.7683 22.2111C72.8191 22.2111 72.7683 22.2618 72.7176 22.3379C72.6162 22.4393 72.7683 22.135 72.7683 22.2111ZM72.4894 21.8815C72.4894 21.8815 72.4134 22.1097 72.3627 22.0843C72.3373 22.0336 72.4641 21.8054 72.4894 21.8815ZM71.9316 23.6817C71.9823 23.6056 72.4641 23.276 72.0838 23.5549C71.9316 23.7577 71.8809 23.8085 71.9316 23.6817ZM71.3231 19.2446L71.2724 19.3206C71.1456 19.3714 71.2978 18.991 71.3231 19.2446ZM67.0635 13.2355C67.1396 13.1594 67.4692 13.1087 67.3931 13.1594C67.3678 13.1594 66.886 13.3116 67.0635 13.2355ZM66.9621 16.9626C66.886 16.8866 67.1142 17.0134 67.0128 17.0894C66.7339 17.3176 67.0128 17.0387 66.9621 16.9626ZM60.2177 24.7719C60.0909 24.7212 60.0909 24.1381 60.2177 24.5691C60.2431 24.6452 60.2431 24.7212 60.2177 24.7719ZM60.4459 25.0001C60.3952 25.2283 60.3191 25.279 60.3698 25.0762C60.4205 24.9241 60.4966 24.7212 60.4459 25.0001ZM60.522 25.4312C60.4712 25.5072 60.4712 25.203 60.522 25.3044C60.5727 25.3551 60.5727 25.4312 60.522 25.4312ZM61.0037 20.918C61.0544 20.918 61.0544 20.9687 61.0544 20.9687C61.0037 21.0701 60.8516 20.8926 61.0037 20.918ZM61.3587 27.7638C61.1558 27.3581 61.2319 27.3581 61.4347 27.7638C61.6122 28.1188 61.5615 28.1695 61.3587 27.7638ZM61.7643 17.5965C61.8151 17.5458 61.8404 17.5458 61.8911 17.5965C61.9418 17.6472 61.6376 17.5965 61.7643 17.5965ZM62.3729 16.8105C62.3222 16.7598 62.3222 16.7598 62.2461 16.8612C62.17 16.988 62.17 16.988 62.1954 16.8105C62.2714 16.6584 62.3475 16.8105 62.4236 16.6584C62.6011 16.3541 62.3729 17.0894 62.3729 16.8105ZM62.7025 22.3632C62.6518 22.4139 62.6264 22.4393 62.6264 22.3632C62.6011 22.2872 62.7278 22.2872 62.7025 22.3632ZM78.2957 30.6543C78.3718 30.8571 78.4985 30.4514 78.4985 30.6543C78.2957 31.136 78.1436 30.4007 78.2957 30.6543ZM79.9691 29.9697C79.9184 30.0457 79.817 30.0204 79.817 29.9697C79.817 29.8429 79.9691 29.9697 79.9691 29.9697ZM80.3748 20.918C80.4255 20.9687 80.4255 21.0448 80.3748 21.0448C80.3241 21.0701 80.3241 20.7912 80.3748 20.918Z" fill="#440E0E"/>
<path d="M70.8161 17.9768C70.8415 18.0022 70.8415 18.0022 70.8668 18.0275C70.9175 18.0782 70.8668 18.0529 70.8161 17.9768Z" fill="#440E0E"/>
<path d="M106.262 24.0113C106.288 23.986 106.288 23.986 106.262 24.0113V24.0113Z" fill="#440E0E"/>
<path d="M102.459 9.12798C102.586 8.92514 102.535 6.76998 102.459 8.51947C102.434 8.87443 102.434 9.15334 102.459 9.12798Z" fill="#440E0E"/>
<path d="M114.249 12.4748C114.198 11.5621 114.122 10.6493 113.995 9.73652C113.945 9.43226 113.894 9.128 113.767 8.8491C113.64 8.57019 113.412 8.36735 113.235 8.11381C112.829 7.58135 112.575 6.94748 112.144 6.44039C111.713 5.93329 111.08 5.52761 110.42 5.65439C110.598 5.83187 110.75 6.03471 110.927 6.21219C110.471 5.73045 109.812 5.4769 109.153 5.55297C109.406 5.67974 109.279 6.06006 109.127 6.28826C108.062 6.36432 107.048 6.84606 106.313 7.60671C105.273 8.82374 104.36 10.1675 103.955 11.7142C103.549 13.2101 103.676 14.985 104.665 16.2527C104.69 16.1259 104.715 15.9738 104.69 15.8217C104.969 16.4555 105.349 17.0641 105.831 17.5458C106.009 17.343 106.414 17.4444 106.49 17.6979C106.617 17.6219 106.718 17.4951 106.718 17.343C106.871 17.3937 106.997 17.5205 107.073 17.6472C107.251 17.4697 107.555 17.4444 107.783 17.5458C107.707 17.4697 107.682 17.343 107.707 17.2415C107.91 17.2669 108.138 17.2669 108.341 17.2923C108.189 17.2669 108.24 16.988 108.367 17.0134C108.265 16.8612 108.189 16.7091 108.088 16.5823C108.214 16.5063 108.316 16.3795 108.367 16.2527C108.544 15.847 108.443 15.3906 108.265 15.0103C108.088 14.63 107.834 14.275 107.682 13.8694C107.378 13.058 107.504 12.1452 107.859 11.3592C108.214 10.5732 108.747 9.88865 109.279 9.20406C109.203 9.25477 109.127 9.30548 109.051 9.35619C109.457 9.07729 109.736 8.89981 110.04 9.55903C110.217 10.2183 110.395 10.8775 110.572 11.5114C110.598 11.4353 110.496 11.3846 110.42 11.4353C110.37 11.486 110.37 11.5621 110.37 11.6381C110.395 11.9677 110.446 12.2974 110.471 12.627C110.522 12.2974 110.547 11.9677 110.598 11.6128C110.725 12.0945 110.725 12.627 110.598 13.1087C110.648 13.1341 110.648 13.0073 110.598 13.0073C110.547 13.0073 110.522 13.0834 110.496 13.1594C110.217 14.8835 109.736 16.5823 109.102 18.2304C108.569 19.5995 107.986 20.9434 107.251 22.2111C106.896 22.845 106.516 23.4535 106.085 24.0366C105.654 24.6452 105.324 25.2283 104.741 25.7101C104.944 25.5833 105.121 25.4565 105.273 25.279C104.969 25.7354 104.639 26.2172 104.335 26.6735C104.31 26.7243 104.259 26.775 104.208 26.775C104.158 26.775 104.082 26.6989 104.132 26.6482C103.752 27.1806 103.372 27.6877 102.966 28.2202C103.372 27.9159 103.752 27.561 104.056 27.1553C103.98 27.3074 102.687 28.8541 102.636 28.7526C102.662 28.8287 102.763 28.7019 102.712 28.6512C102.662 28.6005 102.56 28.6259 102.51 28.6259C102.231 28.6512 102.002 28.423 101.901 28.1441C101.8 27.8652 101.876 27.5863 101.901 27.3328C101.85 27.7131 101.8 28.1188 101.774 28.4991C101.47 27.8399 101.343 27.0792 101.445 26.3439C101.495 26.5468 101.546 26.7496 101.597 26.9271C101.571 26.2932 101.546 25.634 101.521 25.0001C101.419 25.0508 101.571 25.2283 101.673 25.1776C101.774 25.1269 101.8 24.9748 101.8 24.8734C102.104 19.2192 102.231 13.5651 102.129 7.91097C101.977 8.0631 101.926 8.29129 101.977 8.51948C101.774 7.80955 101.495 7.12497 101.166 6.46574C101.09 6.61787 101.039 6.79535 100.963 6.94748C100.912 6.71929 100.836 6.51645 100.709 6.31361C100.583 6.4911 100.456 6.66858 100.329 6.84606C100.278 6.64323 100.101 6.46574 99.898 6.38968C99.6191 6.64323 99.4416 7.0489 99.467 7.42923C99.2134 7.35316 99.0106 7.68277 98.9599 7.93632C98.681 9.10264 98.5796 10.3197 98.6303 11.5114C98.6303 11.5874 98.6303 11.6888 98.5796 11.7649C98.5289 11.841 98.4021 11.8663 98.3767 11.7903C98.3514 11.7142 98.4782 11.6381 98.5035 11.7142C98.5035 14.8328 98.2246 17.9768 98.0725 21.0955C97.9457 23.9352 97.6922 27.0792 98.6556 29.8176C98.8585 30.4007 99.1374 30.9839 99.6445 31.3642C100.126 31.7192 100.735 31.8206 101.318 31.922C102.079 32.0488 102.865 32.1756 103.6 31.922C104.107 31.7445 104.563 31.4149 104.969 31.0599C108.265 28.2456 110.319 24.2902 112.322 20.4363C112.373 20.3095 112.474 20.1827 112.601 20.2081C112.728 20.2334 112.702 20.487 112.575 20.4109C113.488 17.6979 114.426 14.8582 113.97 12.0438C114.046 12.272 114.122 12.5255 114.198 12.7537C114.249 12.703 114.249 12.6016 114.249 12.4748ZM110.75 5.75581C110.699 5.83187 110.674 5.52761 110.75 5.62903C110.75 5.7051 110.75 5.75581 110.75 5.75581ZM104.893 9.6351C104.842 9.78723 104.665 9.76187 104.842 9.58439C104.944 9.55903 104.944 9.55903 104.893 9.6351ZM110.547 11.1564C110.42 11.0803 110.598 10.5479 110.598 11.0043C110.598 11.0803 110.547 11.1564 110.547 11.1564ZM102.231 11.486C102.231 11.5621 102.18 11.6381 102.18 11.6381C102.053 11.5874 102.256 11.0296 102.231 11.486ZM101.825 23.3267C101.825 23.3774 101.825 23.4535 101.774 23.4535C101.749 23.5296 101.749 23.1999 101.825 23.3267ZM100.735 6.64323C100.684 6.97284 100.659 7.0489 100.659 6.77C100.659 6.64323 100.811 6.23755 100.735 6.64323ZM101.47 25.9636C101.47 26.0143 101.521 26.1157 101.521 26.1665C101.419 26.5721 101.293 25.7608 101.47 25.9636ZM109.508 17.9261C109.508 18.0022 109.431 18.0022 109.431 17.9261C109.431 17.8501 109.584 17.7994 109.508 17.9261ZM109.584 17.6472C109.584 17.8501 109.381 17.7994 109.533 17.5965C109.584 17.5205 109.634 17.5205 109.584 17.6472ZM109.66 17.1655C109.71 17.0894 109.71 17.0894 109.71 17.2162C109.736 17.5205 109.584 17.3937 109.66 17.1655ZM110.623 13.7679C110.572 13.9201 110.572 13.5397 110.623 13.6158C110.623 13.6919 110.623 13.7679 110.623 13.7679ZM110.674 13.3876C110.623 13.4637 110.598 13.5144 110.598 13.5144C110.471 13.4383 110.699 13.1594 110.674 13.3876ZM112.778 19.6503C112.778 19.701 112.778 19.701 112.728 19.701C112.626 19.6756 112.829 19.4474 112.778 19.6503ZM113.995 14.7568V14.6807C114.021 14.7568 113.995 15.0357 113.995 14.7568Z" fill="#440E0E"/>
<path d="M126.064 17.5204C126.064 17.5204 126.14 17.4444 126.14 17.4697C126.14 17.5965 125.937 17.5458 125.861 17.5965L126.064 17.5204ZM124.061 17.9261L124.188 18.0782C124.188 18.129 124.137 18.2304 124.061 18.2304C123.985 18.2304 123.934 18.1036 123.934 18.0275C123.96 18.0022 123.985 17.9261 124.061 17.9261ZM127.915 3.6767L128.042 3.72741H127.89C127.864 3.6767 127.915 3.6767 127.915 3.6767ZM127.18 5.55295L127.383 5.60366C127.332 5.65437 127.307 5.73044 127.231 5.73044C127.18 5.73044 127.18 5.65437 127.18 5.60366L127.129 5.55295H127.18ZM117.139 17.6726L117.19 17.7486C117.114 17.7486 117.114 17.6219 117.114 17.5965C117.114 17.5711 117.165 17.5204 117.19 17.5204L117.266 17.5965C117.19 17.5711 117.114 17.5711 117.139 17.6726ZM119.345 24.9241C119.295 24.9241 119.295 24.6959 119.345 24.6959V24.9241ZM119.421 23.9606C119.371 23.9606 119.371 23.7324 119.421 23.7324V23.9606ZM118.737 18.0022H118.965C118.99 18.0529 118.737 18.0529 118.737 18.0022ZM119.193 18.2304C119.193 18.1797 119.244 18.1036 119.269 18.1036C119.32 18.1036 119.32 18.1543 119.32 18.1543L119.193 18.2304ZM122.717 21.6786C122.667 21.6786 122.641 21.6026 122.641 21.5519C122.641 21.5519 122.641 21.5519 122.692 21.5519L122.768 21.6279C122.743 21.6533 122.743 21.6786 122.717 21.6786ZM122.793 19.4474C122.743 19.3206 122.743 19.1685 122.743 19.0417C122.743 18.915 122.743 18.6868 122.793 18.6868C122.793 18.6868 122.844 18.915 122.844 19.0417L122.793 19.4474ZM123.022 18.4839L122.971 18.6361C122.971 18.6868 123.022 18.7121 122.971 18.7121L122.92 18.6361L122.793 18.2811H122.92C122.92 18.205 122.87 18.129 122.87 18.0529L123.022 17.9261C123.148 18.3318 123.098 18.8135 123.098 19.1939V20.8673C123.098 20.8673 123.098 21.0701 123.047 21.0701C122.996 21.0701 122.996 20.9941 122.996 20.9433V20.5123C122.996 20.3095 122.996 19.8277 122.87 19.6756L123.022 18.4839ZM122.946 18.915V18.8642C122.996 18.8642 122.996 18.915 122.996 18.915V19.0417L122.946 18.915ZM123.098 23.631V24.0366V24.0873C123.047 24.0873 123.047 24.0366 123.047 24.0113V23.6817C123.047 23.631 123.047 23.6056 123.098 23.6056V23.631ZM123.072 22.845C123.072 22.921 123.123 23.1999 123.072 23.2506C123.022 22.8196 122.87 21.7801 123.123 21.3997L123.199 21.7547C123.098 22.1097 123.072 22.49 123.072 22.845ZM123.351 7.47992C123.351 7.42921 123.301 7.32779 123.351 7.32779L123.402 7.3785L123.351 7.47992ZM123.275 6.71928C123.275 6.64321 123.275 6.3136 123.351 6.3136C123.351 6.3136 123.402 6.3136 123.402 6.36431L123.275 6.71928ZM123.579 8.72231L123.63 8.77302V8.87444L123.579 8.74766V8.72231ZM123.579 9.02657C123.63 9.02657 123.63 9.07728 123.63 9.07728V9.20405L123.579 9.07728V9.02657ZM123.63 9.78721C123.706 10.345 123.706 10.9028 123.706 11.4353C123.706 11.5113 123.706 12.3481 123.656 12.3988C123.605 11.7649 123.579 11.1564 123.579 10.5479C123.579 10.4718 123.58 9.83792 123.63 9.78721ZM123.579 22.6421C123.63 22.6421 123.63 22.6928 123.63 22.6928V22.8196L123.579 22.6928V22.6421ZM124.467 29.7161H124.518L124.67 29.7668C124.594 29.7668 124.467 29.7668 124.467 29.7161ZM124.746 29.7161H124.974C124.999 29.7668 124.746 29.7668 124.746 29.7161ZM125.659 31.0853C125.659 31.0853 125.785 31.0346 125.811 31.0346C125.836 31.0853 125.659 31.1613 125.659 31.0853ZM125.912 29.8936C125.861 29.8936 125.633 29.8175 125.633 29.8175L125.785 29.7668L125.988 29.8429C125.988 29.8936 125.938 29.8936 125.912 29.8936ZM126.698 30.8064H126.571C126.571 30.8064 126.723 30.7303 126.774 30.7303L126.698 30.8064ZM127.078 30.6796C127.028 30.6796 127.002 30.7303 127.002 30.7303C126.952 30.7303 126.952 30.7303 126.952 30.6796C126.952 30.6796 127.028 30.6035 127.078 30.6035V30.6796ZM127.053 15.9484C127.104 15.9484 127.129 15.9484 127.18 15.9484C127.155 15.9231 127.104 15.9231 127.053 15.9484Z" fill="#440E0E"/>
<path d="M128.422 30.1979C128.27 30.7557 127.712 31.1106 127.154 31.2374C126.597 31.3642 126.014 31.3388 125.43 31.4149C124.72 31.5163 123.96 31.7952 123.275 31.5163C123.351 31.5924 123.224 31.6938 123.098 31.6938C120.917 31.8206 118.737 31.922 116.556 31.998C116.201 32.0234 115.821 32.0234 115.491 31.8713C115.162 31.7191 114.883 31.3895 114.933 31.0346C114.832 31.0092 114.731 30.9839 114.629 30.9331C115.035 31.0599 114.68 29.7161 114.401 29.5133C114.528 29.4372 114.629 29.3358 114.756 29.2597C114.655 29.2344 114.553 29.2344 114.477 29.2344C114.604 29.1837 114.756 29.133 114.883 29.0822C114.781 29.0569 114.705 29.0315 114.604 29.0062C114.857 28.1188 115.948 27.6877 116.784 27.7891C117.342 27.8399 118.61 28.2962 118.965 27.6117C119.142 27.2567 119.041 26.4453 119.066 26.0397C119.092 25.5072 119.142 25.0001 119.168 24.4677C119.168 22.4393 119.776 20.208 119.523 18.205C119.193 18.3318 118.889 18.4586 118.559 18.5346C118.661 18.4839 118.762 18.4586 118.863 18.4079C118.737 18.2811 118.635 18.129 118.559 17.9768C118.382 18.0529 118.204 18.0782 118.027 18.0782C118.154 17.9515 118.331 17.8754 118.508 17.85C118.306 17.8247 118.128 17.8247 117.925 17.8754C117.748 17.9261 117.57 18.0782 117.545 18.2811C117.368 18.205 117.19 18.1036 117.013 18.0275C116.962 18.0022 116.886 17.9768 116.86 17.9008C116.759 17.7233 117.013 17.4951 116.962 17.2922C116.86 17.4444 116.607 17.3937 116.48 17.2415C116.353 17.0894 116.353 16.9119 116.353 16.7091C116.328 16.278 116.277 15.7456 116.531 15.3653C116.607 15.2385 117.317 14.8835 117.291 14.985C117.342 14.7314 117.469 14.5032 117.646 14.3257C117.875 14.4271 118.077 14.5286 118.306 14.63C118.711 14.4779 119.092 14.3004 119.497 14.1482C119.624 14.0975 119.751 14.0468 119.852 13.9454C119.954 13.8186 119.979 13.6411 120.004 13.489C120.258 11.841 120.486 10.1675 120.74 8.51947C120.816 8.06308 121.298 6.54179 121.069 6.16147C120.816 5.70508 119.802 6.00934 119.396 6.0854C118.356 6.23753 117.291 6.03469 116.379 5.50224C116.455 5.5276 116.429 5.37547 116.379 5.2994C116.303 5.24869 116.303 5.09657 116.379 5.09657C116.227 5.04586 116.074 4.96979 115.948 4.86837C116.024 4.79231 116.125 4.71624 116.201 4.66553C116.1 4.69089 116.024 4.53876 116.024 4.43734C116.024 4.31056 116.024 4.18379 115.897 4.13308C116.1 4.05702 116.125 3.70205 115.948 3.60063C116.252 3.34708 116.607 3.04282 116.125 2.83998C116.708 2.25682 117.621 2.20611 118.432 2.20611C119.497 2.20611 120.562 2.18076 121.627 2.18076C121.982 2.18076 122.362 2.1554 122.591 1.90186C123.503 2.07934 124.442 2.20611 125.354 2.33289C125.633 2.35824 127.459 2.76392 127.662 2.56108C127.535 2.71321 127.383 2.81463 127.205 2.89069C127.383 2.83998 127.611 2.9414 127.687 3.11889C127.712 3.1696 127.712 3.24566 127.763 3.27102C127.839 3.34708 127.991 3.32173 128.093 3.27102C128.118 3.67669 128.143 4.08237 128.169 4.5134C128.169 4.58947 128.169 4.66553 128.143 4.71624C128.118 4.76695 128.067 4.79231 128.017 4.81766C127.839 4.91908 127.687 4.99515 127.509 5.09657C127.738 4.99515 127.991 5.32476 127.864 5.55295C127.636 6.06005 125.988 6.06005 125.532 6.11076C125.05 6.16147 124.01 5.98398 124.01 6.56715L123.858 6.44037C123.909 7.04889 123.934 11.6381 123.934 11.6888C123.934 11.8156 123.884 11.9677 123.858 12.0945L123.909 12.1452C123.909 12.8298 123.858 13.5651 123.985 14.2243C124.188 15.2385 125.405 15.0357 126.267 15.0103C126.064 15.061 125.836 15.1117 125.633 15.1624C125.785 15.1624 125.963 15.1878 126.115 15.1878C126.039 15.2131 126.014 15.3906 126.09 15.4413C126.216 15.5174 126.368 15.4667 126.495 15.416C126.521 15.6949 126.749 15.9231 127.028 15.9231C126.926 15.9484 126.825 15.9991 126.749 16.0752C126.85 16.1006 126.952 16.1006 127.078 16.1259C126.825 16.1006 126.774 16.6077 127.028 16.633C126.8 16.6584 126.8 17.064 127.028 17.0894C126.749 17.1401 126.47 17.2922 126.242 17.4697L126.698 17.4444C125.887 17.6726 125.075 17.8247 124.239 17.9261C124.239 18.2811 124.188 18.636 124.087 18.991C124.061 18.8642 124.036 18.7628 124.036 18.636C123.96 19.3967 123.909 20.1573 123.833 20.918C123.833 21.0448 123.833 21.1208 123.934 21.1715C123.985 21.1715 124.01 21.1462 124.036 21.1208C123.63 22.2111 123.605 23.5802 123.757 24.7719C123.808 24.2395 123.858 23.6817 123.909 23.1492C124.01 24.5184 123.985 25.9129 123.833 27.282C123.808 26.9271 123.757 26.5468 123.732 26.1918C123.605 26.851 123.605 27.5356 123.706 28.1948C123.757 28.068 123.833 27.9159 123.884 27.7891C123.833 27.992 123.782 28.1948 123.808 28.3977C123.858 28.6005 124.01 28.778 124.213 28.778C124.239 28.778 124.289 28.778 124.315 28.8033C124.315 28.8287 124.315 28.8287 124.289 28.8287C124.467 28.9301 125.811 29.2597 125.937 29.2851C126.622 29.3865 127.307 29.3611 127.991 29.2597C126.749 29.5386 125.456 29.5133 124.239 29.1583C124.213 29.2344 124.188 29.3104 124.163 29.3865C125.405 29.8175 126.774 29.919 128.067 29.6908C127.966 29.8175 127.89 29.9697 127.788 30.0964C127.89 30.1979 128.017 30.2486 128.143 30.2739C128.27 30.2486 128.346 30.2232 128.422 30.1979Z" fill="#440E0E"/>
<path d="M117.114 14.9596H117.139L117.063 14.9089L117.114 14.9596Z" fill="#440E0E"/>
<path d="M153.6 11.1057C153.549 10.9282 153.422 10.8014 153.295 10.8521C153.321 10.6746 153.346 10.4972 153.371 10.3197C153.422 10.4464 153.473 10.5732 153.524 10.7C153.245 9.71116 152.94 8.72232 152.585 7.75884C152.687 7.78419 152.788 7.86025 152.814 7.96167C152.814 7.70813 152.687 7.35316 152.459 7.45458C152.636 7.37851 152.535 7.12496 152.433 6.99819C150.836 4.89374 148.503 2.89071 145.968 2.07935C145.182 1.8258 144.396 1.67367 143.661 1.29335C143.863 1.29335 144.066 1.268 144.294 1.268C143.331 1.29335 142.494 1.09051 141.505 1.36942C140.542 1.62296 139.629 2.07935 138.666 2.40896C137.905 2.66251 137.119 2.86535 136.384 3.22032C135.319 3.75277 134.457 4.61484 133.645 5.4769C133.316 5.80651 132.986 6.16148 132.657 6.49109C132.631 6.36432 132.682 6.21219 132.809 6.16148C131.871 7.80954 131.085 9.55903 130.476 11.3846C130.501 11.0803 130.501 10.7761 130.527 10.4718C129.944 11.7395 129.538 13.058 129.31 14.4272C129.386 14.199 129.436 13.9708 129.513 13.7679C129.436 15.061 129.335 16.3288 129.183 17.5965C129.132 17.4444 129.081 17.3176 129.005 17.1655C129.056 17.9261 129.132 18.6614 129.183 19.4221C129.208 19.6249 129.208 19.8277 129.158 20.0052C129.132 20.132 129.056 20.2588 129.031 20.3855C128.98 20.5884 129.056 20.7912 129.107 20.9687C129.741 22.8957 130.501 24.7973 131.389 26.6482C131.516 26.9271 131.668 27.206 131.82 27.4849C132.504 28.6766 133.519 29.6654 134.71 30.2993C136.13 31.0599 137.753 31.3388 139.274 31.8459C139.984 32.0995 140.694 32.4037 141.455 32.5305C142.52 32.708 143.584 32.5559 144.649 32.4037C145.106 32.3277 145.537 32.277 145.993 32.2009C145.841 32.2516 145.689 32.3023 145.537 32.353C145.258 32.4544 144.979 32.5305 144.675 32.6319C145.79 32.6826 146.931 32.4291 147.945 31.9474C147.819 31.9727 147.717 31.9981 147.591 31.9981C147.996 31.7952 148.427 31.6177 148.858 31.5163C148.96 31.491 149.086 31.4656 149.163 31.5417C149.239 31.6177 149.163 31.7699 149.086 31.7445C149.416 31.5163 149.746 31.2628 150.075 31.0092C149.974 31.0346 149.847 31.0346 149.746 31.0599C150.43 30.9332 151.089 30.5275 151.521 29.995C151.419 29.919 151.368 30.1472 151.495 30.1725C151.622 30.1979 151.698 30.0711 151.749 29.9697C151.799 29.8683 151.875 29.7415 152.002 29.7668C152.053 29.8683 151.799 29.8683 151.799 29.7415C151.799 29.6147 151.926 29.5386 152.028 29.4879C152.129 29.4119 152.23 29.2851 152.154 29.1837C152.18 29.2344 152.104 29.2851 152.053 29.2597C152.002 29.2344 152.002 29.1583 152.028 29.0823C152.078 28.8287 152.205 28.5752 152.408 28.3977C152.256 28.1695 152.104 27.9413 151.901 27.7384C151.799 27.9159 151.647 28.0934 151.495 28.2202C151.749 27.8652 151.597 27.2821 151.191 27.0792C151.318 26.9778 151.444 26.8764 151.571 26.775C151.521 26.6482 151.47 26.5214 151.394 26.3693C151.191 26.4454 150.988 26.5468 150.785 26.6228C150.785 26.5214 150.988 26.5214 150.988 26.6228C150.988 26.7243 150.861 26.8003 150.76 26.7496C150.836 26.851 150.937 26.9778 151.013 27.0792C150.937 27.1299 150.861 27.206 150.76 27.206C150.658 27.206 150.557 27.1299 150.582 27.0285C150.608 26.9271 150.785 26.9524 150.76 27.0539C150.785 26.9271 150.684 26.8003 150.557 26.8003C150.658 26.7243 150.658 26.5721 150.633 26.4454C150.608 26.3186 150.608 26.1411 150.735 26.0904C150.861 26.0397 150.887 26.3186 150.785 26.2679C150.937 26.2679 151.064 26.065 150.988 25.9129C151.013 26.0143 151.09 26.1157 151.166 26.1664C151.191 26.0397 151.216 25.9129 151.267 25.7861C151.064 25.8368 150.811 25.8115 150.658 25.6847C150.481 25.5579 150.405 25.279 150.532 25.1015C148.909 25.3044 147.312 25.8875 145.942 26.8003C146.424 26.6989 146.881 26.6228 147.362 26.5214C146.881 26.851 146.399 27.1806 145.841 27.3581C145.283 27.5356 144.649 27.561 144.142 27.2821C144.294 27.2567 144.421 27.2567 144.573 27.2314C143.23 26.8257 141.784 26.775 140.415 27.1046C140.44 27.2314 140.466 27.3581 140.466 27.4849C139.401 27.6877 138.412 27.0285 137.449 26.5468C136.789 26.2172 136.105 25.9383 135.496 25.5072C134.609 24.8734 133.975 23.8845 133.747 22.7943C133.519 22.6168 133.493 22.2872 133.493 22.0083C133.519 21.1969 133.544 20.4109 133.544 19.5995C133.569 18.2557 133.645 16.8105 134.381 15.6949C134.355 15.8724 134.33 16.0752 134.305 16.2527C134.406 15.5681 135.015 16.3034 135.192 16.3034C135.015 16.3034 134.862 16.3288 134.685 16.3288C135.37 16.557 136.079 16.7344 136.789 16.7852C137.322 16.8359 137.854 16.8105 138.412 16.7852C141.15 16.6837 143.889 16.557 146.627 16.4555C146.703 16.5063 146.5 16.5316 146.526 16.4555C146.551 16.3795 146.652 16.3541 146.728 16.3541C147.083 16.3795 147.464 16.4048 147.819 16.4302C147.692 16.5063 147.565 16.557 147.413 16.557C148.732 16.557 150.05 16.4555 151.343 16.2527C151.318 16.1513 151.267 16.0499 151.242 15.9484C151.419 15.9484 151.622 15.847 151.749 15.7203C151.749 15.8977 152.002 15.9231 152.129 15.7963C152.256 15.6695 152.281 15.4921 152.383 15.3653C152.484 15.2385 152.738 15.1878 152.788 15.3653C152.814 15.416 152.788 15.4921 152.814 15.5428C152.839 15.5935 152.966 15.5681 152.915 15.5174C153.042 15.4921 153.143 15.4921 153.27 15.4667C153.245 15.5428 153.143 15.4414 153.169 15.3653C153.219 15.3146 153.295 15.2892 153.371 15.2639C153.473 15.2132 153.498 15.0864 153.498 14.9596C153.676 13.7426 153.701 12.5002 153.6 11.2578C153.625 11.2324 153.625 11.1564 153.6 11.1057ZM129.082 17.7233V17.8754C129.031 18.0022 129.031 17.5965 129.082 17.7233ZM129.158 18.3318C129.081 18.7375 129.081 18.4079 129.031 18.2557C128.98 18.0022 129.234 18.0529 129.158 18.3318ZM151.394 29.7161C151.343 29.7668 151.318 29.7922 151.267 29.7922C151.166 29.8429 151.647 29.4372 151.394 29.7161ZM151.47 27.8906C151.47 27.9413 151.419 27.9666 151.343 27.9666C151.191 28.0427 151.47 27.6877 151.47 27.8906ZM150.963 27.7638C151.013 27.7638 151.115 27.6877 151.191 27.561C151.521 27.3328 151.318 27.4849 151.394 27.5103C151.444 27.5103 151.47 27.561 151.47 27.5863C151.47 27.637 151.419 27.637 151.343 27.637C151.216 27.561 151.47 27.7892 151.14 27.7892C151.14 27.7892 151.064 27.8399 151.013 27.8399C150.988 27.9159 150.887 27.7131 150.963 27.7638ZM150.709 29.6401C151.039 29.3612 151.343 29.5133 150.937 29.6401C150.836 29.6401 150.405 29.8936 150.709 29.6401ZM150.405 27.0792C150.405 27.1299 150.329 27.1299 150.253 27.1299C149.949 27.1553 150.43 26.9271 150.405 27.0792ZM149.949 25.4819C149.999 25.4058 150.101 25.4312 150.101 25.5326C150.126 25.5579 149.923 25.5579 149.949 25.4819ZM149.467 25.5326C149.467 25.6086 149.467 25.6086 149.34 25.5326C149.188 25.4312 149.517 25.4819 149.467 25.5326ZM149.01 30.3246C148.934 30.3754 148.858 30.4007 148.808 30.4007C148.63 30.3754 149.188 30.1979 149.01 30.3246ZM147.667 26.3186C147.667 26.3186 147.717 26.3693 147.717 26.3946C147.591 26.6482 147.591 26.3693 147.667 26.3186ZM147.21 27.3328C147.261 27.2821 147.489 27.206 147.337 27.3328C147.286 27.3581 147.083 27.4342 147.21 27.3328ZM143.483 32.5305C143.331 32.6573 143.255 32.6573 143.255 32.5812C143.229 32.5305 143.711 32.3784 143.483 32.5305ZM141.987 27.2821L142.114 27.3328C141.835 27.4088 141.48 27.0792 141.987 27.2821ZM140.998 27.4849C140.998 27.5356 141.049 27.5356 141.074 27.5356C141.15 27.4849 141.683 27.6117 141.353 27.4595C141.277 27.5103 141.125 27.3074 141.277 27.3835C141.353 27.3835 141.353 27.3835 141.353 27.3328C141.353 27.2567 141.125 27.2821 141.15 27.206C141.201 27.1553 141.581 27.3328 141.505 27.4088C141.455 27.4849 141.708 27.2821 141.734 27.4088C141.936 27.4849 141.581 27.4088 141.658 27.5356C141.708 27.6117 141.657 27.6117 141.607 27.5863C141.455 27.5356 141.531 27.6624 141.252 27.637C141.1 27.5863 140.694 27.8399 140.846 27.6877C141.049 27.4849 140.44 27.6117 140.491 27.4849C140.466 27.4088 141.024 27.4088 140.998 27.4849ZM140.517 27.1553C140.593 27.1046 140.669 27.1046 140.719 27.1553C140.846 27.206 140.364 27.206 140.517 27.1553ZM140.035 27.7638C140.111 27.9159 139.426 27.7131 139.223 27.6877C139.477 27.637 140.922 27.561 140.035 27.7638ZM133.265 19.0924C133.189 19.1432 133.189 18.8643 133.265 18.9657C133.265 18.991 133.265 19.0924 133.265 19.0924ZM133.443 18.991C133.392 19.0417 133.392 19.0671 133.392 19.0671C133.265 19.0417 133.468 18.7628 133.443 18.991ZM150.354 9.48296C150.354 9.48296 150.405 9.53367 150.405 9.55903C150.481 9.78722 150.227 9.50832 150.354 9.48296ZM149.872 8.59555C149.872 8.59555 149.923 8.64626 149.923 8.67161C149.949 8.95051 149.796 8.67161 149.872 8.59555ZM148.63 3.44851C148.681 3.49922 148.681 3.57529 148.63 3.57529C148.605 3.60064 148.605 3.32174 148.63 3.44851ZM146.12 2.23148C146.12 2.28219 145.993 2.23148 145.968 2.18077C145.917 2.07935 146.12 2.20613 146.12 2.23148ZM145.156 5.198C145.156 5.24871 144.954 5.32477 144.954 5.24871C144.954 5.14729 145.156 5.14729 145.156 5.198ZM144.725 5.12193C144.725 5.198 144.523 5.198 144.523 5.17264C144.523 5.14729 144.725 5.04587 144.725 5.12193ZM142.646 1.24264H142.798C142.925 1.268 142.52 1.268 142.646 1.24264ZM135.192 16.1513H135.344C135.471 16.202 135.065 16.202 135.192 16.1513ZM139.477 14.199H139.604C139.629 14.275 139.35 14.2497 139.477 14.199ZM140.187 14.4272C139.832 14.3764 140.263 14.3511 140.339 14.3764C140.44 14.4018 140.364 14.4272 140.187 14.4272ZM141.024 14.4272C140.212 14.3764 141.176 14.3511 141.353 14.3764C141.48 14.4018 141.353 14.4272 141.024 14.4272ZM141.074 14.199C141.125 14.199 141.074 14.2497 140.998 14.2497C140.745 14.2497 141.024 14.1483 141.074 14.199ZM141.328 16.1259C141.379 16.0752 141.455 16.0752 141.455 16.1259C141.48 16.202 141.201 16.1513 141.328 16.1259ZM143.559 16.4048C143.28 16.4555 143.61 16.2527 143.635 16.3541C143.686 16.4048 143.635 16.4048 143.559 16.4048ZM144.244 14.1229H144.396C144.523 14.1483 144.117 14.1483 144.244 14.1229ZM147.514 15.9231H147.717C147.869 15.9484 147.362 15.9484 147.514 15.9231ZM147.945 16.0499H148.224C148.427 16.0752 147.768 16.0752 147.945 16.0499ZM148.63 15.9992C148.706 15.9484 148.833 15.9484 148.909 15.9992C149.112 16.0499 148.427 16.0499 148.63 15.9992ZM150.481 11.4353C150.481 11.131 150.456 10.8268 150.456 10.4972C150.278 11.055 150.202 11.6381 150.202 12.2466C150.202 12.3227 150.227 12.3988 150.278 12.4241C150.354 12.4495 150.38 12.2974 150.303 12.3227C150.227 12.8805 150.101 13.4383 149.949 13.9708C145.917 14.0215 141.886 14.0468 137.829 14.0975C136.967 14.0975 136.079 14.1229 135.268 13.7933C135.369 13.2608 135.648 12.8298 135.851 12.3481C136.967 9.93935 138.742 7.07425 140.745 5.90793C140.694 5.90793 140.669 5.90793 140.669 5.85722C140.719 5.78116 140.871 5.80651 140.871 5.70509C140.871 5.57832 141.024 5.62903 140.998 5.55296C140.846 5.22335 143.28 4.91909 143.508 4.99516C144.092 5.14729 144.725 5.57832 145.258 5.29942C146.754 5.55296 148.174 6.2629 149.264 7.3278C149.67 8.342 150.025 9.38155 150.278 10.4464C150.43 10.2183 150.456 9.93935 150.38 9.6858C150.582 10.269 150.608 10.9028 150.456 11.5114C150.481 11.486 150.481 11.4606 150.481 11.4353ZM153.067 15.2892C153.067 15.2892 153.118 15.3399 153.194 15.416C153.371 15.6695 153.042 15.3906 153.067 15.2892Z" fill="#440E0E"/>
<path d="M146.145 10.2183C146.171 9.83796 146.196 9.45764 146.095 9.07732C145.993 8.69699 145.765 8.34203 145.41 8.21525C145.461 8.26596 145.486 8.31667 145.537 8.36738C145.334 8.36738 145.207 8.16454 145.08 8.01241C145.004 7.91099 144.066 7.45461 143.939 7.55603C143.889 7.60674 143.863 7.60674 143.889 7.55603C143.965 7.47996 142.672 7.47996 142.494 7.53067C141.683 7.75887 141.125 8.69699 141.277 9.5337C141.328 9.78725 141.455 10.0408 141.556 10.269C141.683 10.5225 141.784 10.7761 141.911 11.0296C142.012 11.2578 142.139 11.486 142.241 11.6889C142.291 11.6382 142.317 11.5621 142.367 11.5114C142.317 11.6889 142.342 11.8917 142.444 12.0692C142.57 12.1199 142.722 12.0692 142.849 11.9931C142.925 12.0438 143.001 12.1453 143.027 12.2467C142.951 12.2213 142.875 12.196 142.824 12.1706C142.773 12.2213 142.773 12.3227 142.824 12.3734C142.925 12.2467 143.179 12.4495 143.077 12.5763C143.382 12.5763 143.686 12.6016 144.016 12.6016H144.041C144.396 12.627 144.776 12.627 145.03 12.3988C145.106 12.3227 145.182 12.2467 145.258 12.196C145.385 12.1199 145.562 12.1199 145.664 12.0438C145.765 11.9678 145.79 11.841 145.816 11.7142C145.993 11.0804 146.145 10.4718 146.323 9.83796C146.221 9.93938 146.171 10.0915 146.145 10.2183ZM142.596 11.6382C142.596 11.6889 142.596 11.6889 142.545 11.6889C142.444 11.6889 142.646 11.486 142.596 11.6382ZM142.545 11.841C142.545 11.7142 142.697 11.841 142.748 11.841C142.722 11.9171 142.545 11.8917 142.545 11.841ZM144.041 12.4749C143.432 12.5509 144.193 11.9931 144.244 12.3988C144.244 12.4749 144.193 12.4749 144.041 12.4749ZM144.32 7.80958C144.244 7.73351 144.32 7.73351 144.472 7.80958C144.624 7.91099 144.32 7.88564 144.32 7.80958ZM144.675 8.1899C144.624 8.24061 144.599 8.26596 144.599 8.1899C144.599 8.11383 144.725 8.08848 144.675 8.1899ZM145.435 11.7649C145.309 11.7649 145.486 11.5367 145.486 11.6889C145.486 11.7142 145.435 11.7649 145.435 11.7649ZM146.069 10.4465C146.019 10.5733 145.942 10.5733 145.917 10.4465C145.917 10.3704 146.145 10.3197 146.069 10.4465Z" fill="#440E0E"/>
<path d="M166.252 33.5954L166.302 33.5447C166.277 33.5701 166.252 33.5701 166.226 33.5954C166.226 33.5954 166.226 33.5954 166.252 33.5954Z" fill="#440E0E"/>
<path d="M166.277 26.9778C166.302 26.9524 166.328 26.9017 166.353 26.8764C166.328 26.8764 166.302 26.9271 166.277 26.9778Z" fill="#440E0E"/>
<path d="M163.209 9.96471H163.26C163.234 9.96471 163.209 9.914 163.209 9.96471Z" fill="#440E0E"/>
<path d="M157.327 14.275L157.352 14.2243C157.352 14.2497 157.327 14.275 157.327 14.275Z" fill="#440E0E"/>
<path d="M155.045 18.6107V18.7628C155.197 18.4839 155.374 18.1543 155.374 17.8501C155.273 18.0022 155.045 18.4839 155.045 18.6107Z" fill="#440E0E"/>
<path d="M166.404 33.5193C166.404 33.5193 166.404 33.494 166.429 33.4686C166.429 33.4686 166.429 33.4686 166.404 33.4686C166.404 33.494 166.404 33.5193 166.404 33.5193Z" fill="#440E0E"/>
<path d="M159.279 25.2537L159.33 25.3044C159.381 25.3044 159.33 25.1015 159.33 25.0762L159.203 24.3662L159.279 25.2537Z" fill="#440E0E"/>
<path d="M155.172 18.0022C155.222 18.0022 155.4 17.3937 155.451 17.3176L155.577 17.3683C155.577 17.3176 155.527 17.2162 155.451 17.2162C155.324 17.2162 155.121 17.774 155.121 17.9008C155.121 17.8754 155.121 18.0022 155.172 18.0022Z" fill="#440E0E"/>
<path d="M173.934 14.3511C173.934 14.1482 174.01 13.9708 174.162 14.0215C173.96 12.0438 173.96 9.93934 173.554 7.98701C173.3 6.69392 172.514 5.04585 172.768 3.70205L172.819 3.54992C172.92 3.11889 172.311 2.05398 171.956 1.85114C171.728 1.72437 171.449 1.69901 171.17 1.67366C167.215 1.31869 163.285 1.0905 159.304 0.989079C158.721 0.963724 158.138 0.963724 157.555 1.0905C157.301 1.14121 157.022 1.44547 157.225 1.5976C156.87 1.5976 156.515 1.6483 156.186 1.72437C156.439 1.82579 156.718 1.82579 156.997 1.77508C156.972 1.69901 156.845 1.77508 156.87 1.85114C156.896 1.92721 156.997 1.95256 157.048 1.90185C156.693 1.95256 156.363 2.00327 156.008 2.05398C156.363 2.23147 156.744 2.33289 157.124 2.38359C156.541 2.33289 155.932 2.58643 155.552 3.01747C156.034 3.1696 156.515 3.32172 157.022 3.47385C156.566 3.52456 156.008 3.67669 155.907 4.10772C156.034 4.13308 156.135 4.18379 156.262 4.20914C156.186 4.28521 156.059 4.31056 155.958 4.31056C156.186 4.53876 156.465 4.71624 156.794 4.76695C156.693 4.84301 156.566 4.89372 156.439 4.91908C157.301 5.47689 158.417 5.5783 159.431 5.50224C163.108 5.27405 166.759 4.76695 170.308 3.80347C170.384 4.0063 170.435 4.15843 170.435 4.36127C170.435 7.07424 170.232 9.86327 170.182 12.6016C170.156 14.2497 170.131 15.8977 169.852 17.5204C170.004 17.4444 170.106 17.2669 170.08 17.0894C169.877 19.5235 169.091 21.9322 167.849 24.0366C167.95 23.9352 168.026 23.8338 168.128 23.7324C167.621 24.6198 167.139 25.5072 166.632 26.3946C166.378 26.8257 166.15 27.282 165.795 27.637C165.542 27.9159 165.237 28.1441 164.933 28.347C164.375 28.7526 163.843 29.1583 163.285 29.564C163.082 29.7161 162.854 29.8682 162.601 29.8682C162.372 29.8682 162.144 29.7415 161.941 29.6147C160.598 28.7019 159.659 27.2313 159.431 25.6086C159.355 25.8368 159.355 26.1157 159.431 26.3439C159.254 25.8875 159.076 25.4058 158.899 24.9494C159.026 24.7466 159.026 24.4677 158.899 24.2395C158.873 24.3662 158.873 24.493 158.848 24.6451C158.696 23.8591 158.62 23.0478 158.696 22.2364C158.671 22.3632 158.721 22.5153 158.823 22.5914C158.696 21.6026 159.026 20.5884 159.33 19.6502C160.065 17.4951 160.876 15.1878 162.702 13.7933C162.854 13.6665 163.032 13.5651 163.234 13.5904C163.742 13.6665 163.691 14.4779 164.096 14.7821C164.122 14.6807 164.173 14.5793 164.198 14.4525C164.756 15.8217 164.553 17.4951 163.691 18.6868C163.488 18.636 163.26 18.7375 163.184 18.9403C163.31 18.8896 163.437 18.8135 163.539 18.7628C163.032 19.5488 162.524 20.3348 162.017 21.0955C162.068 20.994 162.119 20.8926 162.17 20.7912C161.764 21.3237 161.358 21.9829 161.637 22.566C161.688 22.6675 161.764 22.7689 161.865 22.7435C161.967 22.7182 161.967 22.5153 161.865 22.5407C162.043 22.5153 162.246 22.5407 162.398 22.6168C162.093 22.8957 161.916 23.3267 161.992 23.7324C162.068 23.6056 162.144 23.4788 162.22 23.3267C161.967 23.7577 162.296 24.3409 162.778 24.493C162.981 24.5691 163.184 24.5691 163.387 24.5691C163.615 24.5691 163.843 24.5944 164.046 24.5944C164.375 24.5944 164.705 24.6198 165.009 24.493C165.314 24.3662 165.542 24.1127 165.745 23.8845C166.784 22.6421 167.57 21.1715 168.026 19.5995C167.9 19.7263 167.798 19.8277 167.672 19.9545C168.559 18.3318 168.812 16.3541 168.331 14.5539C168.001 13.3369 167.367 12.2213 166.581 11.2578C166.378 11.0296 166.176 10.776 165.922 10.5986C165.187 10.0154 164.173 9.78721 163.26 10.0154C163.209 10.0915 163.234 10.2182 163.336 10.269C162.956 9.88863 162.372 9.83792 161.865 9.99005C160.775 10.3197 158.062 11.7902 158.062 13.2608V13.3115C157.377 14.4018 156.718 15.3906 156.313 16.633C155.882 17.9515 155.603 19.346 155.121 20.6644C155.222 20.132 155.324 19.6249 155.425 19.0924C155.4 19.1939 155.172 19.0924 155.248 19.0164C154.664 20.0052 154.69 21.2476 154.741 22.3886C154.766 23.2506 154.817 24.0873 154.842 24.9494C154.867 25.6847 154.893 26.4453 155.096 27.1553C155.197 27.5102 155.324 27.8652 155.45 28.2202C155.603 28.6005 155.729 29.0062 155.932 29.3611C156.668 30.705 158.062 31.567 158.873 32.8855C158.772 32.8348 158.671 32.784 158.544 32.7333C158.696 33.3672 159.457 33.6461 160.09 33.7982C161.155 34.0518 162.195 34.3053 163.26 34.5589C163.032 34.5842 162.803 34.6349 162.575 34.6603C164.071 34.3307 165.542 33.925 167.012 33.4179C166.911 33.5193 166.835 33.6208 166.733 33.7222C168.483 32.708 169.979 31.2374 171.044 29.5133C172.185 27.6624 172.844 25.5326 173.478 23.4281C173.402 23.5295 173.351 23.6309 173.275 23.7577C174.086 22.135 174.112 20.2334 174.112 18.4332C174.112 17.1908 174.112 15.9231 174.112 14.6807C174.188 14.7314 174.314 14.5793 174.238 14.5286C174.162 14.4525 174.01 14.6046 174.086 14.6807C173.934 14.5286 173.934 14.4525 173.934 14.3511ZM157.048 3.62598L157.175 3.70205C157.175 3.75276 157.175 3.75276 157.124 3.75276C157.073 3.75276 156.972 3.70205 156.972 3.67669C156.972 3.62598 156.997 3.62598 157.048 3.62598ZM156.972 5.12192C156.921 5.12192 156.896 5.07121 156.896 5.04585C156.896 4.99514 156.896 4.99514 156.946 4.99514L157.022 5.07121C156.997 5.07121 156.997 5.12192 156.972 5.12192ZM156.997 4.18379C156.997 4.13308 157.048 4.18379 157.073 4.18379L157.2 4.25985L156.997 4.18379ZM170.258 7.80953C170.207 7.80953 170.207 7.58134 170.258 7.58134V7.80953ZM162.727 24.2395L162.448 24.2902C162.727 24.138 162.803 24.138 162.803 24.138C162.803 24.1634 162.727 24.2395 162.727 24.2395ZM168.356 15.3653C168.407 15.3653 168.407 15.416 168.407 15.416V15.5428L168.356 15.416V15.3653ZM167.925 18.7121L167.976 18.7628V18.8896C167.874 18.8896 167.874 18.7121 167.925 18.7121ZM167.773 19.3206V19.4728L167.722 19.3206V19.2699C167.773 19.2699 167.773 19.3206 167.773 19.3206ZM167.697 17.85L167.748 17.9008L167.697 18.0275C167.697 17.9515 167.646 17.85 167.697 17.85ZM163.919 14.1229H164.071C163.995 14.1736 163.944 14.3257 163.919 14.3257L163.868 14.275L163.919 14.1229ZM155.121 21.9575C155.07 21.9575 155.07 21.9068 155.07 21.8815V21.5519C155.07 21.5011 155.07 21.4758 155.121 21.4758V21.9575ZM156.287 17.3176L156.16 17.4444L156.313 17.2669L156.287 17.3176ZM156.313 17.1148H156.262C156.262 17.064 156.338 16.988 156.389 16.988H156.439C156.439 17.0387 156.363 17.1148 156.313 17.1148ZM159.33 33.0883H159.38C159.431 33.0883 159.786 33.3672 159.786 33.4433C159.634 33.4433 159.33 33.2151 159.33 33.0883ZM164.528 28.6766L165.009 28.3216C164.882 28.4737 164.73 28.6512 164.528 28.6766ZM165.009 31.8459C165.009 31.7952 165.136 31.8966 165.161 31.8966C165.161 31.9727 165.009 31.8966 165.009 31.8459ZM167.595 24.9748L167.545 24.924C167.595 24.8733 167.621 24.848 167.672 24.848C167.697 24.8733 167.646 24.9748 167.595 24.9748ZM170.486 4.71624C170.486 4.71624 170.511 4.74159 170.511 4.76695L170.486 4.71624ZM170.486 4.0063C170.435 4.0063 170.41 3.9556 170.41 3.93024C170.41 3.90489 170.461 3.85418 170.486 3.85418L170.537 3.93024C170.537 3.90489 170.537 4.0063 170.486 4.0063ZM172.641 25.4311L172.59 25.4819C172.59 25.4311 172.641 25.3551 172.666 25.3297L172.641 25.4311ZM173.275 7.68276V7.40385L173.326 7.55598L173.275 7.68276ZM173.681 10.4464V10.6746C173.655 10.6746 173.655 10.4464 173.681 10.4464ZM173.681 22.0843C173.681 22.0843 173.681 21.9575 173.681 21.9322L173.731 22.0082L173.681 22.0843Z" fill="#440E0E"/>
<path d="M176.115 22.2364C176.191 22.3125 176.241 21.9068 176.165 21.9068C176.089 21.9068 176.165 21.5519 176.216 21.704C176.216 21.7801 176.216 21.7801 176.267 21.704C176.394 21.6279 176.064 21.2983 176.267 21.349C176.343 21.2222 176.343 20.6644 176.419 20.5123C176.546 20.2841 176.495 20.3855 176.368 20.3095C176.368 20.1827 176.596 20.1827 176.596 19.9799C176.647 19.7517 176.723 19.8531 176.799 19.777C176.85 19.701 176.799 19.701 176.749 19.7263C176.546 19.777 177.027 19.1178 176.749 19.0417C176.622 18.9657 176.622 18.9657 176.672 19.0417C176.901 18.991 176.318 20.6898 176.47 19.8531C176.698 18.7628 176.267 20.132 176.14 20.0813C176.064 20.2841 175.988 20.7912 175.937 21.6533C175.963 22.2111 176.013 22.0843 176.115 22.2364Z" fill="#440E0E"/>
<path d="M183.011 21.3997C183.062 21.3997 183.011 21.349 182.961 21.3237C182.808 21.273 183.037 21.0955 182.961 20.9687C182.606 20.918 182.682 22.3379 182.758 22.6168C182.808 22.9717 183.087 22.8957 182.961 22.7435C182.884 22.6421 182.884 21.3997 183.011 21.3997Z" fill="#440E0E"/>
<path d="M196.221 23.4535C196.348 20.7912 196.297 18.1036 195.968 15.4667C195.866 15.5428 196.044 15.6949 196.12 15.6188C196.196 15.5428 196.196 15.416 196.17 15.2892C196.145 15.1625 196.094 15.061 196.12 14.9596C196.094 15.061 196.044 15.1878 196.018 15.2892C195.968 15.0103 195.917 14.7568 195.866 14.4779C195.993 14.5032 196.12 14.3765 196.094 14.2497C196.044 14.1229 195.815 14.199 195.866 14.3004C195.638 12.9819 195.182 11.7142 194.522 10.5479C194.472 10.4465 194.396 10.3197 194.421 10.1929C194.446 10.0661 194.624 9.99007 194.7 10.0915C194.066 9.10265 193.686 8.01239 192.925 7.07426C192.139 6.08542 191.201 5.22336 190.161 4.53878C190.288 4.56413 190.415 4.61484 190.542 4.6402C189.68 4.15845 188.843 3.67671 187.981 3.19497C188.082 3.14426 187.955 3.32174 187.854 3.27103C184.786 1.72439 180.476 2.5611 178.473 5.45155C178.523 5.37549 178.599 5.27407 178.65 5.198C178.549 5.07123 178.371 5.27407 178.295 5.4262C178.245 5.57832 178.016 5.75581 177.94 5.60368C177.813 6.11078 177.813 6.64323 177.94 7.15032C178.016 6.77 178.295 6.44039 178.65 6.28826C178.498 6.4911 178.473 6.82071 178.625 7.0489C178.523 7.0489 178.422 7.17568 178.447 7.2771C178.701 7.2771 178.954 7.22639 179.183 7.12497C179.081 7.32781 178.802 7.42923 178.599 7.30245C178.726 7.42923 178.878 7.58136 179.005 7.70813C179.715 7.50529 180.425 7.35316 181.135 7.20103C180.552 7.22639 179.943 7.22639 179.36 7.25174C180.501 7.04891 181.617 6.82071 182.783 6.84607C183.924 6.84607 185.116 7.07426 186.079 7.68278C186.662 8.03774 187.144 8.54484 187.626 9.02658C188.108 9.50832 188.564 9.96471 189.046 10.4465C189.046 10.4972 188.944 10.4211 189.02 10.3957C189.071 10.3704 189.122 10.4465 189.147 10.4972C190.035 12.4748 190.668 14.5793 190.973 16.7345C191.125 17.6979 191.201 18.6614 191.226 19.6503C191.252 20.8673 191.175 22.059 191.074 23.2506C191.049 23.5549 191.023 23.8845 190.973 24.1888C190.871 25.1015 190.744 25.989 190.542 26.8764C190.694 26.5468 190.77 26.1665 190.77 25.7861C190.77 26.065 190.922 26.7496 190.694 27.0032C190.643 27.0792 190.542 27.1046 190.44 27.1299C188.539 27.637 186.561 27.9159 184.583 27.9413C183.645 27.9666 182.631 27.8906 181.896 27.3328C181.414 26.9778 181.11 26.4454 180.805 25.9383C180.501 25.4312 180.197 24.9241 180.197 24.3409C180.095 24.3916 179.969 24.3155 179.943 24.2141C179.918 24.1127 179.943 23.9859 179.994 23.8845C180.222 23.1999 180.248 22.4646 180.095 21.7547C180.019 22.2365 179.969 22.7435 180.019 23.2253C179.791 22.5407 179.817 21.8054 180.07 21.1208C180.019 21.273 180.07 21.4758 180.197 21.6026C180.298 20.4109 180.729 19.2446 181.439 18.2811C182.073 17.8247 182.631 17.2923 183.265 16.8612C183.873 16.4556 184.659 16.1766 185.293 16.557C185.724 16.8105 185.952 17.3176 186.333 17.6472C186.485 17.7994 186.688 17.9008 186.814 18.0783C186.941 18.2557 186.992 18.5093 186.865 18.6868C187.093 19.1178 187.119 19.6756 186.916 20.1066C186.789 20.3855 186.662 20.6645 186.536 20.9434C186.459 20.8673 186.485 20.7405 186.536 20.6645C186.409 20.8673 186.307 21.0955 186.181 21.2983C186.13 21.3744 186.105 21.4758 186.155 21.5265C186.206 21.5772 186.307 21.4505 186.231 21.4505C186.13 21.5519 186.003 21.6279 185.851 21.6533C185.978 21.704 185.952 21.9322 185.826 21.9575C184.964 22.135 184 21.5519 183.772 20.6898C183.696 20.8166 183.569 20.8673 183.442 20.8673C183.468 21.0194 183.518 21.1715 183.544 21.2983C183.417 21.1969 183.315 21.1208 183.189 21.0194C183.138 21.1208 183.163 21.2476 183.265 21.349C182.935 22.5154 183.594 23.8845 184.71 24.3663C185.623 24.7466 186.738 24.5691 187.575 24.0113C188.412 23.4535 188.995 22.6168 189.401 21.6786C189.477 21.6786 189.426 21.8308 189.35 21.8054C189.274 21.7801 189.274 21.6533 189.299 21.5772C189.451 21.0194 190.136 20.563 189.908 20.0559C189.882 20.2081 189.882 20.3855 189.857 20.5377C189.73 20.4616 189.578 20.4109 189.451 20.3348C189.603 20.3348 189.73 20.2588 189.806 20.1066C189.654 19.9799 189.578 19.8024 189.527 19.5996C189.654 19.777 189.832 19.9292 190.06 20.0052C190.136 19.1939 190.212 18.3572 190.263 17.5458C190.339 16.6837 189.147 15.2639 188.64 14.6554C187.905 13.7933 187.043 13.1848 186.028 12.6777C185.724 12.5255 185.014 12.6777 184.659 12.703C184.051 12.703 183.417 12.7284 182.859 12.9566C182.301 13.2101 181.87 13.6412 181.338 13.9454C180.831 14.2497 180.222 14.4018 179.715 14.7061C178.625 15.3399 178.067 16.557 177.535 17.6979C177.357 18.0022 177.18 18.3065 177.027 18.6361C177.078 18.56 177.154 18.4586 177.205 18.3825C177.002 19.5488 176.799 20.6898 176.596 21.8561C176.825 21.9322 176.85 22.2365 176.799 22.4646C176.749 22.6928 176.622 22.921 176.723 23.1492C176.774 23.2506 176.85 23.3521 176.825 23.4788C176.799 23.6056 176.571 23.5549 176.622 23.4535C176.622 23.7577 176.596 24.062 176.596 24.3916C176.52 23.7577 176.495 23.1239 176.571 22.49C176.267 23.0478 176.115 23.6817 176.165 24.3155C176.089 23.6817 176.064 23.0225 176.14 22.3632C175.658 23.3774 175.684 24.6198 176.241 25.6086C176.267 25.6594 176.292 25.6847 176.343 25.6847C176.394 25.6847 176.368 25.5833 176.343 25.6086C176.318 25.7861 176.216 26.0904 176.267 26.2425C176.318 26.42 176.52 26.4707 176.546 26.6735C176.571 26.8257 176.52 26.9778 176.546 27.1299C176.571 27.2821 176.698 27.4342 176.85 27.4088C176.723 27.2821 176.723 27.0792 176.85 26.9525C177.433 29.4626 179.614 31.491 182.2 31.7699C182.301 31.7699 182.428 31.7952 182.453 31.8966C182.479 31.9981 182.352 32.1248 182.301 32.0234C183.645 32.0488 184.989 32.0234 186.333 31.9727C186.307 31.922 186.206 31.9981 186.231 32.0488C186.257 32.0995 186.333 32.0995 186.409 32.0995C186.941 32.0741 187.448 32.0741 187.981 32.0488C187.879 32.1248 187.778 32.2009 187.677 32.277C189.249 31.9474 190.821 31.6431 192.393 31.3135C192.342 31.1614 192.443 31.0092 192.595 30.9585C192.494 31.1614 192.621 31.4403 192.849 31.491C192.9 31.2374 192.925 31.0092 192.976 30.7557C192.95 30.9585 193.052 31.1614 193.204 31.2628C193.153 31.0599 193.204 30.8571 193.28 30.6543C193.179 31.0092 193.432 31.4149 193.787 31.5163C193.762 31.2881 193.812 31.0346 193.965 30.8571C194.167 30.8825 194.345 31.0092 194.446 31.1867C194.345 31.2121 194.243 31.2881 194.218 31.3895C194.345 31.3642 194.497 31.3895 194.598 31.491C194.598 31.3895 194.751 31.2121 194.801 31.136C194.953 31.2121 194.979 31.3388 195.08 31.491C195.232 31.1867 195.384 30.9078 195.537 30.6035C195.46 30.2739 195.46 29.8936 195.587 29.564C195.638 29.8175 195.613 30.0965 195.486 30.3246C195.587 30.2232 195.689 30.1472 195.79 30.0457C195.739 29.2851 195.815 28.5245 196.018 27.8145C195.942 27.992 195.866 28.1695 195.765 28.3216C195.993 26.6989 196.145 25.0762 196.221 23.4535ZM178.65 6.64323C178.701 6.64323 178.777 6.69394 178.777 6.69394C178.777 6.79536 178.447 6.59252 178.65 6.64323ZM178.878 6.71929C178.802 6.84607 178.752 6.87142 178.752 6.79536C178.726 6.79536 179.081 6.51645 178.878 6.71929ZM178.802 5.07123C178.802 4.99516 179.005 4.84303 179.031 4.86839C179.081 4.84303 178.853 5.14729 178.802 5.07123ZM180.603 6.74465C180.603 6.69394 180.805 6.61787 180.805 6.69394C180.805 6.79536 180.603 6.79536 180.603 6.74465ZM181.693 6.11078C181.743 6.06007 181.769 6.06007 181.769 6.06007C181.845 6.11078 181.541 6.28826 181.693 6.11078ZM183.341 22.0336C183.392 22.0843 183.392 22.1604 183.392 22.1857C183.29 22.4393 183.239 21.9322 183.341 22.0336ZM183.645 23.4028C183.696 23.4535 183.721 23.4535 183.721 23.4788C183.721 23.6056 183.442 23.3521 183.645 23.4028ZM183.899 21.1208C183.975 21.0448 183.848 21.1969 183.949 21.2476C184.127 21.4505 183.696 21.1716 183.899 21.1208ZM184.051 21.3997C184.101 21.3997 184.127 21.4505 184.127 21.4505C184.127 21.6026 183.924 21.3997 184.051 21.3997ZM188.615 22.2111C188.665 22.2111 188.615 22.2618 188.564 22.3379C188.463 22.4393 188.615 22.135 188.615 22.2111ZM187.778 23.6817C187.829 23.6056 188.31 23.276 187.93 23.5549C187.778 23.7577 187.727 23.8085 187.778 23.6817ZM187.169 19.2446L187.119 19.3206C186.967 19.3714 187.119 18.991 187.169 19.2446ZM182.884 13.2355C182.961 13.1594 183.29 13.1087 183.214 13.1594C183.214 13.1594 182.732 13.3116 182.884 13.2355ZM182.808 16.9626C182.732 16.8866 182.961 17.0134 182.859 17.0894C182.58 17.3176 182.859 17.0387 182.808 16.9626ZM176.292 25.0001C176.241 25.2283 176.165 25.279 176.216 25.0762C176.241 24.9241 176.318 24.7212 176.292 25.0001ZM176.368 25.4312C176.318 25.5072 176.318 25.203 176.368 25.3044C176.419 25.3551 176.419 25.4312 176.368 25.4312ZM176.85 20.918C176.901 20.918 176.901 20.9687 176.901 20.9687C176.85 21.0701 176.698 20.8926 176.85 20.918ZM177.205 27.7638C177.002 27.3581 177.078 27.3581 177.281 27.7638C177.459 28.1188 177.408 28.1695 177.205 27.7638ZM177.611 17.5965C177.661 17.5458 177.687 17.5458 177.737 17.5965C177.763 17.6472 177.484 17.5965 177.611 17.5965ZM178.219 16.8105C178.168 16.7598 178.168 16.7598 178.092 16.8612C178.016 16.988 178.016 16.988 178.042 16.8105C178.118 16.6584 178.194 16.8105 178.27 16.6584C178.447 16.3541 178.219 17.0894 178.219 16.8105ZM185.242 31.7192C185.166 31.6431 185.521 31.6431 185.648 31.7192C185.8 31.8459 185.217 31.7699 185.242 31.7192ZM186.333 31.7952C186.257 31.922 186.003 31.7445 185.902 31.7445C185.826 31.7445 185.75 31.5924 185.952 31.6685C186.003 31.7699 186.485 31.6938 186.333 31.7952ZM193.052 30.4768C193.052 30.5275 193.001 30.5528 192.925 30.6035C192.773 30.6796 193.052 30.4007 193.052 30.4007V30.4768ZM193.863 8.59555C193.914 8.54484 193.863 8.54484 193.787 8.59555C193.635 8.64626 193.863 8.36736 193.939 8.64626C194.091 8.87445 193.762 8.67162 193.863 8.59555ZM194.041 9.33084C193.965 9.20407 194.243 9.33084 194.269 9.53368C194.497 10.1676 194.167 9.43226 194.041 9.33084ZM195.815 29.9697C195.765 30.0457 195.663 30.0204 195.663 29.9697C195.663 29.8429 195.815 29.9697 195.815 29.9697ZM196.221 20.918C196.272 20.9687 196.272 21.0448 196.221 21.0448C196.17 21.0701 196.17 20.7912 196.221 20.918ZM196.17 22.4393C196.17 22.49 196.221 22.5154 196.221 22.5661C196.221 22.8703 196.094 22.3632 196.17 22.4393Z" fill="#440E0E"/>
<path d="M182.048 17.8501C182.048 17.8247 182.048 17.8247 182.073 17.8247C181.997 17.9008 181.997 17.9008 182.048 17.8501Z" fill="#440E0E"/>
<path d="M186.637 17.9768C186.662 18.0022 186.662 18.0022 186.688 18.0275C186.738 18.0782 186.713 18.0529 186.637 17.9768Z" fill="#440E0E"/>
<path d="M9.3306 24.3916C9.38131 22.4393 9.86305 20.5631 9.96447 18.6107C10.0912 16.4809 10.5983 14.4272 11.6125 12.5002C12.1957 11.3846 12.9563 10.5986 14.1987 10.3197C15.8468 9.93938 17.5456 9.66047 19.1429 9.15338C21.932 8.2406 24.1632 10.3958 25.2788 12.4749C26.4198 14.554 26.5465 16.9627 26.6733 19.3207C26.8761 23.4789 27.0536 27.6624 26.2676 31.7952C25.9634 33.3419 25.4309 34.9646 23.8843 35.8013C22.7687 36.3845 21.6023 36.8916 20.4107 37.2973C19.65 37.5508 18.864 38.134 18.0527 37.7536C16.2778 36.8916 14.9847 35.421 14.858 33.4433C14.5537 28.8034 14.5537 24.1381 14.5537 19.4982C14.5537 18.0783 15.2383 17.3176 16.4807 16.9373C17.5202 16.6331 18.5851 16.4556 19.6754 16.3542C20.3346 16.3034 20.6642 16.5316 20.6389 17.2162C20.4867 20.0052 20.9685 22.7689 20.9178 25.558C20.8924 26.3693 21.0445 27.2567 20.5881 28.0427C19.9543 27.6624 19.8529 27.13 19.8275 26.5468C19.7768 25.5072 19.5993 24.4677 19.65 23.4282C19.7514 21.9322 18.9908 21.4505 17.6977 21.4251C17.0131 22.1351 16.6328 22.9971 16.506 23.986C16.2525 26.1158 16.43 28.2709 16.9878 30.3247C17.647 32.7841 19.4979 33.4433 21.6784 32.2263C21.8559 32.1249 22.0587 31.922 22.2362 31.922C24.1378 31.8713 24.1378 30.4514 24.2139 29.1583C24.3407 27.2567 24.4167 25.3298 24.4167 23.4282C24.4167 20.3856 24.2139 17.3683 23.149 14.4525C22.8447 13.6412 22.363 13.1848 21.5263 12.9566C17.8498 11.9171 13.286 14.2243 12.0182 17.9515C10.9533 21.0194 10.4969 24.1888 11.0547 27.4342C11.1561 27.992 11.1308 28.5752 11.0801 29.133C10.9026 31.2374 10.7251 33.3419 11.1561 35.4463C11.5618 37.3987 11.3083 39.4524 11.8914 41.3794C12.0943 42.0893 12.2971 42.8246 13.1085 43.1035C14.0466 43.4331 14.9594 43.9402 15.9229 44.067C20.4867 44.7009 24.797 43.8134 28.7524 41.3794C28.9299 41.278 29.1834 41.1258 29.2341 40.9483C29.792 39.1989 30.7047 37.5762 30.7554 35.6745C30.8061 33.9504 30.9329 32.2009 31.1865 30.5022C31.9978 24.9748 32.3528 19.4474 32.0232 13.8694C31.8964 11.7903 32.0485 9.43228 29.5891 8.31667C29.4877 8.26596 29.3863 8.16454 29.3102 8.03777C27.8143 5.42622 25.2281 5.57835 22.8194 5.45157C21.9066 5.40086 20.9431 5.65441 19.9796 5.67977C16.8863 5.78118 13.8184 6.03473 10.7758 6.46577C9.38131 6.6686 7.96143 6.8968 6.56692 7.78422C7.2515 8.11383 6.9726 8.4688 6.7444 8.84912C6.08518 9.88867 5.73021 11.0296 5.65414 12.272C5.50201 14.6047 5.32453 16.9373 5.19776 19.27C5.09634 21.1716 4.96956 23.0985 4.99492 25.0002C5.02027 26.7243 5.19776 28.4484 6.4655 29.9443C7.98679 29.0316 9.25453 26.5722 9.3306 24.3916Z" fill="#440E0E"/>
<path d="M20.9938 44.9291C19.5232 45.0558 18.0526 45.1319 16.582 45.3854C15.3904 45.5883 15.2382 46.07 15.8721 47.0842C16.2271 47.642 16.506 48.1998 16.8863 48.7323C18.078 50.355 20.2839 50.2282 21.1966 48.4534C21.6784 47.4899 22.008 46.4757 22.439 45.4362C21.9319 45.0558 21.4755 44.9037 20.9938 44.9291Z" fill="#440E0E"/>
<path d="M29.5384 42.7485C27.51 43.4585 25.3549 43.8134 23.4532 45.208C24.2392 46.6785 25.076 47.9209 26.4451 48.7069C26.8508 48.9351 27.3325 49.2901 27.6621 48.6562C28.4735 46.9828 29.5638 45.4615 30.0962 43.6613C30.2483 43.1035 30.1976 42.5203 29.5384 42.7485Z" fill="#440E0E"/>
<path d="M34.9136 30.3247C33.6966 29.6654 32.9106 30.0458 32.7077 31.4149C32.6317 32.0488 32.581 32.708 32.5303 33.1137C32.5303 33.5194 32.5049 33.6969 32.5303 33.8743C32.6317 34.99 32.5049 36.3338 33.9501 36.5873C35.1418 36.7901 35.8264 35.776 36.3842 34.8632C36.8152 34.1279 37.6012 33.418 36.9927 32.4038C36.4856 31.5163 35.801 30.8064 34.9136 30.3247Z" fill="#440E0E"/>
<path d="M13.1845 4.18382C12.6521 2.91607 12.2971 1.7244 11.4097 0.887687C10.8519 0.355236 10.0405 -0.278635 9.40665 0.532719C8.34175 1.87653 7.04865 3.14427 6.7951 5.02053C9.00098 5.35014 11.0294 4.69091 13.1845 4.18382Z" fill="#440E0E"/>
<path d="M35.725 14.0468C36.7392 13.1087 37.5252 11.9677 38.1844 10.7254C37.2716 9.73651 36.2321 8.95051 35.015 8.46877C33.8741 8.01239 33.3163 8.36735 33.3163 9.55903C33.2909 10.8268 33.2148 12.1199 33.5952 13.3876C34.0008 14.7061 34.7108 14.985 35.725 14.0468Z" fill="#440E0E"/>
<path d="M0.10144 21.1462C0.912795 22.7943 2.28196 23.9352 3.44828 25.4312C4.69067 22.7689 4.53854 19.4981 3.24544 17.9515C1.87628 18.6868 1.03957 19.9545 0.10144 21.1462Z" fill="#440E0E"/>
<path d="M14.0719 45.0051C12.6267 44.1937 11.6125 42.6471 9.71088 42.4696C8.92488 44.0162 9.60946 45.6643 9.12772 47.211C8.97559 47.6673 9.50804 48.1744 10.0658 47.9463C11.2575 47.4645 12.5253 47.1349 13.7423 46.7799C14.4776 46.5264 14.7058 45.3601 14.0719 45.0051Z" fill="#440E0E"/>
<path d="M33.3416 23.5296C33.2149 25.0255 33.2149 26.5722 33.2909 28.0681C33.3416 28.9555 34.0769 29.1837 34.6094 28.4738C35.4207 27.4342 36.4603 26.6482 37.3731 25.7355C37.6773 25.4312 37.9562 25.1016 38.0323 24.5438C37.1195 23.631 36.0039 23.1746 34.8883 22.6929C34.0009 22.3126 33.4177 22.769 33.3416 23.5296Z" fill="#440E0E"/>
<path d="M32.657 2.28224C32.5302 1.64837 32.1246 1.24269 31.44 1.47089C30.0455 1.92727 28.7017 2.51044 27.7889 3.85424C29.3355 5.02056 30.6286 6.41508 32.5556 7.3025C32.9359 5.55302 32.9613 3.93031 32.657 2.28224Z" fill="#440E0E"/>
<path d="M3.80323 15.6442C4.33568 13.6665 4.46245 11.6635 3.87929 9.22943C2.58619 10.6239 0.887419 11.1564 0 12.7538C1.41987 14.8582 2.30729 15.5681 3.80323 15.6442Z" fill="#440E0E"/>
<path d="M34.4065 15.9485C33.367 15.847 32.9613 16.3795 33.1895 17.3683C33.367 18.1543 33.7726 18.9403 33.5698 19.777C33.4177 20.3855 33.3416 20.8673 33.9755 21.1969C34.5586 21.5012 35.0657 21.273 35.5221 20.8926C36.587 20.0559 37.2463 18.8896 38.159 17.7994C37.0688 16.5823 35.8264 16.0752 34.4065 15.9485Z" fill="#440E0E"/>
<path d="M33.6712 37.069C32.2006 38.2354 31.4907 39.7566 30.8315 41.3033C30.3244 42.4696 30.7807 43.1542 32.0231 42.8753C35.9531 41.9879 36.3588 41.1512 34.3304 37.9311C34.1783 37.6522 33.9755 37.4494 33.6712 37.069Z" fill="#440E0E"/>
<path d="M9.07704 35.066C8.67137 35.7506 8.26569 36.4605 7.88537 37.1705C6.84582 39.0467 7.07401 39.7313 9.05169 40.6694C9.43201 40.8469 9.86304 40.9483 10.3448 41.1005C11.2069 38.3114 10.6744 35.8013 9.07704 35.066Z" fill="#440E0E"/>
<path d="M15.6693 3.80349C16.0496 3.77814 16.4553 3.75278 16.8356 3.72743V3.75278C17.3934 3.70207 17.9512 3.70207 18.509 3.62601C18.94 3.54994 19.4218 3.44852 19.4471 2.89072C19.4978 1.80046 18.864 0.989103 18.1033 0.355232C17.5455 -0.101155 16.6328 -0.12651 16.1764 0.329877C15.4157 1.03981 14.8326 2.02865 14.8579 3.14426C14.8579 3.49923 15.1875 3.82884 15.6693 3.80349Z" fill="#440E0E"/>
<path d="M26.7494 3.29642C26.1155 2.30758 25.6084 1.34409 24.7717 0.634157C24.3153 0.253835 23.7321 -0.202552 23.149 0.27919C22.3376 0.96377 21.5009 1.67371 21.3741 2.81467C22.363 3.49925 25.8112 3.80351 26.7494 3.29642Z" fill="#440E0E"/>
<path d="M2.35803 4.58947C2.76371 5.62902 2.51016 6.8207 3.32152 7.80954C3.82861 8.44341 4.05681 8.77302 4.74139 7.98702C5.27384 7.35315 6.03448 6.89676 6.66835 6.38967C5.78094 4.81767 3.67648 3.9556 2.35803 4.58947Z" fill="#440E0E"/>
<path d="M45.8922 39.3256H44.1935V48.3266H42.5961V39.3256H40.8973V37.8297H45.8922V39.3256Z" fill="#440E0E"/>
<path d="M51.7492 45.9685C51.7492 47.6166 50.8111 48.4787 49.2644 48.4787C47.7685 48.4787 46.8304 47.6166 46.8304 45.9685V37.8296H48.3517V45.9178C48.3517 46.6785 48.7066 46.9574 49.2391 46.9574C49.7715 46.9574 50.1265 46.6785 50.1265 45.9178V37.8296H51.7239V45.9685H51.7492ZM49.6955 37.2211H48.5292L49.3912 35.5731H50.9886L49.6955 37.2211Z" fill="#440E0E"/>
<path d="M59.3304 48.3266H57.2766L55.5018 37.8297H57.1245L58.3162 45.8418H58.3415L59.5078 37.8297H61.1052L59.3304 48.3266Z" fill="#440E0E"/>
<path d="M66.7086 39.3002H63.8182V42.2667H66.1508V43.7373H63.8182V46.856H66.7086V48.3266H62.2462V37.8297H66.7086V39.3002Z" fill="#440E0E"/>
<path d="M71.6274 48.3266L70.3597 43.8895H69.6244V48.3266H68.027V37.8297H70.309C72.0077 37.8297 72.9459 38.7678 72.9459 40.4919V41.2526C72.9459 42.3682 72.5656 43.1542 71.8303 43.5598L73.2755 48.3519H71.6274V48.3266ZM69.6498 39.3002V42.4189H70.2836C71.0443 42.4189 71.3992 42.0132 71.3992 41.1258V40.5933C71.3992 39.7059 71.0443 39.3002 70.2836 39.3002H69.6498Z" fill="#440E0E"/>
<path d="M79.5635 48.3266H77.9408L77.5858 45.9432H75.8364L75.4814 48.3266H73.884L75.7096 37.8297H77.738L79.5635 48.3266ZM76.6984 40.0862L76.0646 44.498H77.4084L76.7745 40.0862H76.6984Z" fill="#440E0E"/>
<path d="M85.8769 48.3266H84.3049L82.2258 41.3793H82.2004V48.3266H80.7045V37.8297H82.4793L84.3556 44.0923H84.3809V37.8297H85.8769V48.3266Z" fill="#440E0E"/>
<path d="M92.5451 40.3398V45.8164C92.5451 47.4645 91.5817 48.4787 89.9843 48.4787C88.3869 48.4787 87.4235 47.4645 87.4235 45.8164V40.3398C87.4235 38.6917 88.3869 37.6775 89.9843 37.6775C91.5817 37.6775 92.5451 38.6917 92.5451 40.3398ZM88.9955 40.3398V45.7911C88.9955 46.5771 89.3504 46.9827 89.9589 46.9827C90.5675 46.9827 90.9224 46.5517 90.9224 45.7911V40.3398C90.9224 39.5538 90.5675 39.1481 89.9589 39.1481C89.3504 39.1481 88.9955 39.5791 88.9955 40.3398Z" fill="#440E0E"/>
<path d="M95.6131 48.1745L94.7511 50H93.9144L94.4468 48.3266H93.9144V46.6532H95.5878V48.1745H95.6131Z" fill="#440E0E"/>
<path d="M104.234 39.3256H102.535V48.3266H100.938V39.3256H99.2388V37.8297H104.208V39.3256H104.234Z" fill="#440E0E"/>
<path d="M110.091 45.9685C110.091 47.6166 109.153 48.4787 107.606 48.4787C106.11 48.4787 105.172 47.6166 105.172 45.9685V37.8296H106.693V45.9178C106.693 46.6785 107.048 46.9574 107.581 46.9574C108.113 46.9574 108.468 46.6785 108.468 45.9178V37.8296H110.065V45.9685H110.091ZM108.037 37.2211H106.871L107.733 35.5731H109.33L108.037 37.2211Z" fill="#440E0E"/>
<path d="M119.497 40.4919V41.3286C119.497 43.0528 118.559 43.9909 116.86 43.9909H116.151V48.3519H114.553V37.855H116.835C118.559 37.8297 119.497 38.7678 119.497 40.4919ZM116.151 39.3002V42.5203H116.784C117.545 42.5203 117.9 42.1146 117.9 41.2272V40.5933C117.9 39.7059 117.545 39.3002 116.784 39.3002H116.151Z" fill="#440E0E"/>
<path d="M122.261 48.3266H120.664V37.8297H122.261V48.3266Z" fill="#440E0E"/>
<path d="M125.557 46.8306H128.219V48.3266H123.985V37.8297H125.583V46.8306H125.557Z" fill="#440E0E"/>
<path d="M133.696 39.3002H130.806V42.2667H133.138V43.7373H130.806V46.856H133.696V48.3266H129.234V37.8297H133.696V39.3002Z" fill="#440E0E"/>
<path d="M139.325 39.3256H137.626V48.3266H136.029V39.3256H134.33V37.8297H139.3V39.3256H139.325Z" fill="#440E0E"/>
<path d="M144.903 48.3266H143.28L142.925 45.9432H141.176L140.821 48.3266H139.223L141.049 37.8297H143.077L144.903 48.3266ZM142.038 40.0862L141.404 44.498H142.748L142.114 40.0862H142.038Z" fill="#440E0E"/>
<path d="M147.793 48.1745L146.931 50H146.095L146.627 48.3266H146.095V46.6532H147.768V48.1745H147.793Z" fill="#440E0E"/>
<path d="M156.414 39.3256H154.715V48.3266H153.143V39.3256H151.444V37.8297H156.414V39.3256Z" fill="#440E0E"/>
<path d="M162.271 45.9685C162.271 47.6166 161.333 48.4787 159.786 48.4787C158.29 48.4787 157.352 47.6166 157.352 45.9685V37.8296H158.873V45.9178C158.873 46.6785 159.228 46.9574 159.761 46.9574C160.319 46.9574 160.648 46.6785 160.648 45.9178V37.8296H162.246V45.9685H162.271ZM160.217 37.2211H159.051L159.913 35.5731H161.51L160.217 37.2211Z" fill="#440E0E"/>
<path d="M168.331 46.8306H170.993V48.3266H166.759V37.8297H168.356V46.8306H168.331Z" fill="#440E0E"/>
<path d="M176.825 45.9686C176.825 47.6166 175.886 48.4787 174.34 48.4787C172.844 48.4787 171.906 47.6166 171.906 45.9686V37.8297H173.427V45.9178C173.427 46.6785 173.782 46.9574 174.315 46.9574C174.872 46.9574 175.202 46.6785 175.202 45.9178V37.8297H176.799V45.9686H176.825Z" fill="#440E0E"/>
<path d="M183.265 40.1877V40.8976L181.743 40.9737V40.3398C181.743 39.5031 181.439 39.1228 180.805 39.1228C180.171 39.1228 179.867 39.5031 179.867 40.1877V45.9179C179.867 46.6025 180.171 46.9828 180.78 46.9828C181.388 46.9828 181.693 46.6025 181.693 45.7657V43.9655H180.805V42.495H183.265V45.9179C183.265 47.5152 182.352 48.428 180.755 48.428C179.183 48.428 178.27 47.4899 178.27 45.9179V40.1623C178.27 38.565 179.157 37.6522 180.755 37.6522C182.352 37.6775 183.265 38.6157 183.265 40.1877Z" fill="#440E0E"/>
<path d="M189.806 48.3266H188.184L187.829 45.9432H186.079L185.724 48.3266H184.127L185.952 37.8297H187.981L189.806 48.3266ZM186.941 40.0862L186.307 44.498H187.651L187.017 40.0862H186.941Z" fill="#440E0E"/>
<path d="M194.522 48.3266L193.255 43.8895H192.519V48.3266H190.922V37.8297H193.204C194.903 37.8297 195.841 38.7678 195.841 40.4919V41.2526C195.841 42.3682 195.46 43.1542 194.725 43.5598L196.17 48.3519H194.522V48.3266ZM192.545 39.3002V42.4189H193.179C193.939 42.4189 194.294 42.0132 194.294 41.1258V40.5933C194.294 39.7059 193.939 39.3002 193.179 39.3002H192.545Z" fill="#440E0E"/>
</svg>
